Coordinates
version=1
nRows=24
nColumns=24
inDegrees=yes

Units are S.I. units (second, meters, Newtons, ...)
Angles are in degrees.

endheader
time	pelvis_tilt	pelvis_list	pelvis_rotation	pelvis_tx	pelvis_ty	pelvis_tz	hip_flexion_r	hip_adduction_r	hip_rotation_r	knee_angle_r	ankle_angle_r	subtalar_angle_r	mtp_angle_r	hip_flexion_l	hip_adduction_l	hip_rotation_l	knee_angle_l	ankle_angle_l	subtalar_angle_l	mtp_angle_l	lumbar_extension	lumbar_bending	lumbar_rotation
      1.09200000	     -3.03354121	      6.13438561	     -1.97259123	      0.18283896	      0.90375416	      0.31030151	     18.10731415	    -10.76088473	     -6.12899074	    -73.97928777	     -3.55894275	     11.19179299	     13.58899613	     13.05157092	      9.30574688	     -4.84714969	    -17.55085497	      9.45376330	     -5.85504459	      2.92620290	     -6.16895577	     -8.95228666	      2.30699884
      1.09616667	     -2.98039321	      5.92296271	     -1.89978355	      0.18812309	      0.90501137	      0.31006596	     18.74474119	    -10.48183369	     -6.23100273	    -73.88440279	     -3.04697809	     11.04582348	     13.39849037	     12.28588184	      9.17818858	     -4.51082161	    -16.90677518	      9.40858365	     -6.05607091	      2.90681633	     -6.26882420	     -8.67643082	      2.05071246
      1.10033333	     -2.99371830	      5.70357232	     -1.83843743	      0.19339952	      0.90610391	      0.30987480	     19.45275811	    -10.17531540	     -6.31495224	    -73.73428855	     -2.51362632	     10.87041293	     13.32986101	     11.63685521	      9.00658643	     -4.33721646	    -16.35379161	      9.41153955	     -6.02524692	      2.89873896	     -6.24923214	     -8.39130572	      1.95520011
      1.10450000	     -2.94360743	      5.46737654	     -1.75582260	      0.19872113	      0.90731194	      0.30963983	     20.04452915	     -9.86238023	     -6.44269519	    -73.47142171	     -2.06990408	     10.70113979	     13.17310294	     10.87430850	      8.84148315	     -4.01112578	    -15.71141580	      9.39944540	     -6.17185805	      2.87732029	     -6.31177325	     -8.10897376	      1.71752549
      1.10866667	     -2.94494368	      5.23000895	     -1.67344913	      0.20399315	      0.90836124	      0.30940866	     20.69066947	     -9.53928276	     -6.56216131	    -73.16838136	     -1.54006238	     10.50562115	     13.10100509	     10.21793161	      8.65094871	     -3.80962363	    -15.16146729	      9.38210687	     -6.16872743	      2.86537532	     -6.31368303	     -7.79474507	      1.60031229
      1.11283333	     -2.88429695	      4.98172641	     -1.57411450	      0.20933062	      0.90951039	      0.30914018	     21.22425140	     -9.22026595	     -6.72392204	    -72.75770153	     -1.13209755	     10.29558033	     12.94903806	      9.44712921	      8.46728598	     -3.47105700	    -14.52249119	      9.37050015	     -6.32029247	      2.83936494	     -6.38242223	     -7.49535400	      1.34433929
      1.11700000	     -2.87864013	      4.73048097	     -1.46975733	      0.21459150	      0.91049190	      0.30887344	     21.81626586	     -8.88850378	     -6.87604801	    -72.30990187	     -0.61677216	     10.07789974	     12.86889488	      8.79304760	      8.25818211	     -3.24601690	    -13.98538026	      9.34273912	     -6.33450793	      2.82391021	     -6.40660849	     -7.15877477	      1.20756216
      1.12116667	     -2.80838370	      4.47252178	     -1.35464494	      0.21992451	      0.91156728	      0.30858282	     22.29538044	     -8.56595203	     -7.06737821	    -71.76190574	     -0.22974819	      9.82980549	     12.72091043	      8.02462570	      8.05438420	     -2.91662502	    -13.36447429	      9.33704279	     -6.46771146	      2.79587394	     -6.47407855	     -6.84894053	      0.94765088
      1.12533333	     -2.76861216	      4.24357344	     -1.23542991	      0.22521290	      0.91251078	      0.30826897	     22.80830066	     -8.27981794	     -7.25085995	    -71.18733713	      0.24132939	      9.58349456	     12.46345006	      7.30323292	      7.87805367	     -2.59096070	    -12.75320936	      9.23751324	     -6.64713704	      2.74381731	     -6.52485870	     -6.54453804	      0.66976273
      1.12950000	     -2.75765066	      3.97009714	     -1.10419589	      0.23048319	      0.91336711	      0.30798392	     23.32116722	     -7.93656005	     -7.45279829	    -70.52898786	      0.71741975	      9.34194887	     12.40847726	      6.67395322	      7.62593585	     -2.40428420	    -12.27501902	      9.26820050	     -6.59086518	      2.73330500	     -6.52351860	     -6.19927988	      0.58795141
      1.13366667	     -2.66925109	      3.68645941	     -0.96563529	      0.23574825	      0.91432524	      0.30769608	     23.71883997	     -7.58441453	     -7.66658245	    -69.78173909	      1.05785006	      9.02611664	     12.29517848	      5.92576127	      7.37256216	     -2.09054397	    -11.71993902	      9.29013206	     -6.63887426	      2.71270286	     -6.67095933	     -5.85666109	      0.34779128
      1.13783333	     -2.59525185	      3.44310655	     -0.82690725	      0.24104113	      0.91516725	      0.30736230	     24.12638326	     -7.30110187	     -7.89565846	    -69.00800405	      1.41829269	      8.72983750	     12.14488386	      5.18878740	      7.16158242	     -1.80177427	    -11.14781870	      9.29134433	     -6.73212306	      2.68442112	     -6.74232545	     -5.52783954	      0.07655001
      1.14200000	     -2.53053185	      3.18798706	     -0.67430853	      0.24629033	      0.91594828	      0.30703501	     24.52196786	     -7.00114185	     -8.13049079	    -68.16905846	      1.80023260	      8.41773751	     11.98635830	      4.48849375	      6.92842710	     -1.52221422	    -10.62163068	      9.27371984	     -6.80452508	      2.65493431	     -6.82674714	     -5.19794892	     -0.16355821
      1.14616667	     -2.48618515	      2.93303874	     -0.51210101	      0.25152393	      0.91662997	      0.30672537	     24.92216783	     -6.70119223	     -8.37094843	    -67.27926990	      2.21593903	      8.11049531	     11.88450424	      3.84124231	      6.68211433	     -1.30251482	    -10.15376783	      9.25884890	     -6.80609529	      2.63631231	     -6.88130569	     -4.87622281	     -0.33897100
      1.15033333	     -2.39247158	      2.70518064	     -0.36690196	      0.25677112	      0.91731782	      0.30640157	     25.26175615	     -6.44093980	     -8.60375303	    -66.34462972	      2.48666806	      7.76508636	     11.69960016	      3.09835899	      6.47199427	     -1.00602890	     -9.59664124	      9.28175027	     -6.88468362	      2.60551316	     -7.00033938	     -4.57376281	     -0.64030485
      1.15450000	     -2.32247726	      2.47411324	     -0.20682922	      0.26198259	      0.91790752	      0.30609208	     25.60753378	     -6.17643172	     -8.84364203	    -65.35593382	      2.80716731	      7.43104459	     11.52409065	      2.41589938	      6.24581186	     -0.75657685	     -9.10159237	      9.29261619	     -6.92476216	      2.57672924	     -7.08917751	     -4.27472765	     -0.87603578
      1.15866667	     -2.26420771	      2.24567120	     -0.03645655	      0.26717709	      0.91841551	      0.30579292	     25.94670703	     -5.91644642	     -9.09015110	    -64.31415400	      3.13210651	      7.09247452	     11.39326712	      1.77614120	      6.01209424	     -0.55103158	     -8.66411459	      9.30107794	     -6.92326874	      2.55629903	     -7.15985398	     -3.99470625	     -1.07358216
      1.16283333	     -2.18420230	      2.07268119	      0.11756707	      0.27236612	      0.91885894	      0.30548674	     26.26907892	     -5.72247809	     -9.31120585	    -63.26433566	      3.42077741	      6.73713012	     10.98447314	      1.06357054	      5.84684135	     -0.24289552	     -8.11526846	      9.24819672	     -7.07354792	      2.49104769	     -7.26763955	     -3.76114213	     -1.46505517
      1.16700000	     -2.11791408	      1.85988696	      0.27557057	      0.27754291	      0.91923691	      0.30521295	     26.57590107	     -5.47993088	     -9.54628569	    -62.13210531	      3.62197951	      6.38261909	     10.82839486	      0.42200007	      5.61893902	     -0.06799971	     -7.68761086	      9.35346271	     -7.00270085	      2.47056974	     -7.34958860	     -3.47658375	     -1.59503172
      1.17116667	     -2.04526307	      1.67788456	      0.42998874	      0.28270854	      0.91954701	      0.30495559	     26.86859946	     -5.26972134	     -9.76671309	    -60.97176290	      3.83306912	      6.01054373	     10.65266965	     -0.23270575	      5.42152052	      0.11737219	     -7.23937971	      9.40080017	     -6.96975124	      2.44730040	     -7.44580989	     -3.23841263	     -1.82613618
      1.17533333	     -1.99520212	      1.49951208	      0.59743914	      0.28785354	      0.91976032	      0.30470047	     27.16650656	     -5.06648001	     -9.99437547	    -59.76422093	      4.06665407	      5.65523790	     10.52764208	     -0.83461396	      5.22070634	      0.27598452	     -6.84450578	      9.43466454	     -6.92751972	      2.43169790	     -7.50957551	     -3.00756385	     -2.01605571
      1.17950000	     -1.93423570	      1.34824959	      0.74645934	      0.29299926	      0.91990437	      0.30447237	     27.44983775	     -4.88692763	    -10.19737431	    -58.53321477	      4.23523277	      5.28413782	     10.39804440	     -1.46511842	      5.04778535	      0.43818970	     -6.41358715	      9.48981573	     -6.88449942	      2.41722634	     -7.59052257	     -2.80551301	     -2.23876705
      1.18366667	     -1.87281335	      1.21100889	      0.89086361	      0.29814674	      0.91997586	      0.30426094	     27.72053464	     -4.71940736	    -10.39063627	    -57.26821767	      4.37322744	      4.91338894	     10.25474484	     -2.09654775	      4.88656242	      0.60014389	     -5.98285289	      9.54528112	     -6.84949249	      2.40202625	     -7.67739070	     -2.60843423	     -2.47889060
      1.18783333	     -1.82645395	      1.09479338	      1.02975436	      0.30328108	      0.91995404	      0.30407351	     27.99738611	     -4.57066717	    -10.56720670	    -55.97347040	      4.49828072	      4.57230818	     10.11717607	     -2.69869756	      4.74431032	      0.73764157	     -5.57705301	      9.60844441	     -6.80759091	      2.38839067	     -7.73776198	     -2.46232714	     -2.69734728
